<?xml version="1.0" encoding="utf-8"?>
<!-- Generator: Adobe Illustrator 24.2.3, SVG Export Plug-In . SVG Version: 6.00 Build 0)  -->
<svg version="1.1" id="Layer_1" xmlns="http://www.w3.org/2000/svg" xmlns:xlink="http://www.w3.org/1999/xlink" x="0px" y="0px"
	 viewBox="0 0 1000 1000" style="enable-background:new 0 0 1000 1000;" xml:space="preserve">
<style type="text/css">
	.st0{fill:url(#SVGID_1_);}
	.st1{fill:url(#SVGID_2_);}
	.st2{fill:url(#SVGID_3_);}
	.st3{fill:url(#SVGID_4_);}
	.st4{fill:url(#SVGID_5_);}
	.st5{fill:url(#SVGID_6_);}
	.st6{fill:url(#SVGID_7_);}
	.st7{opacity:0.3;fill:#F9BDF2;}
	.st8{fill:#F9BDF2;}
</style>
<g>
	<g>
		<g>
			<linearGradient id="SVGID_1_" gradientUnits="userSpaceOnUse" x1="365.9898" y1="617.0786" x2="678.0449" y2="617.0786">
				<stop  offset="0" style="stop-color:#FF00FF"/>
				<stop  offset="1" style="stop-color:#ED1E79"/>
			</linearGradient>
			<path class="st0" d="M627.04,834.91H483.68c-14.46,0-28.62-1.2-42.09-3.56c-27.97-4.9-66.54-5.31-66.93-5.32
				c-3.54-0.03-6.38-2.93-6.35-6.47c0.03-3.52,2.89-6.35,6.4-6.35c0.02,0,0.04,0,0.06,0c1.62,0.01,40,0.42,69.02,5.51
				c12.74,2.23,26.15,3.36,39.88,3.36h143.37c21.06,0,38.19-17.13,38.19-38.19V620.61c0-10.2-3.97-19.79-11.19-27.01
				c-7.21-7.21-16.81-11.19-27.01-11.18L527,582.43c-2.67,0-5.07-1.66-6-4.17c-0.94-2.51-0.22-5.33,1.81-7.08
				c0.4-0.35,40.31-35.51,47.5-80.14c2.46-15.23,4.11-31.14,4.92-47.29c0.42-8.36-2.52-16.3-8.28-22.35
				c-5.73-6.02-13.46-9.34-21.78-9.34c-14.61,0-27.08,10.48-29.65,24.92c-5.76,32.42-17.89,74.8-43,92.61
				c-9.16,6.5-16.6,10.79-22.57,14.23c-11.34,6.54-14.68,8.71-16.06,14.97c-8.95,40.56-30.22,67.14-59.89,74.85
				c-3.43,0.89-6.92-1.17-7.81-4.59c-0.89-3.42,1.17-6.92,4.59-7.81c17.53-4.55,40.54-19.56,50.6-65.21
				c2.67-12.06,10.43-16.54,22.17-23.31c5.74-3.31,12.88-7.43,21.56-13.58c16.83-11.94,30.25-41.91,37.79-84.4
				c3.65-20.57,21.43-35.49,42.26-35.49c11.86,0,22.89,4.73,31.06,13.32c8.2,8.62,12.39,19.92,11.79,31.82
				c-0.83,16.62-2.54,33-5.07,48.69c-5.45,33.79-26.9,61.77-40.44,76.53l84.52-0.01c0,0,0,0,0.01,0c13.62,0,26.43,5.3,36.06,14.94
				c9.63,9.63,14.94,22.44,14.94,36.07V783.9C678.04,812.03,655.16,834.91,627.04,834.91z"/>
			<linearGradient id="SVGID_2_" gradientUnits="userSpaceOnUse" x1="284.6465" y1="726.4139" x2="378.8042" y2="726.4139">
				<stop  offset="0" style="stop-color:#FF00FF"/>
				<stop  offset="1" style="stop-color:#ED1E79"/>
			</linearGradient>
			<path class="st1" d="M307.67,849.49c-11.2,0-20.41-9.62-20.57-21.58l-2.45-201.52c-0.17-12.05,8.91-21.98,20.24-22.14l50.59-0.9
				c11.33-0.16,20.7,9.52,20.87,21.58l2.45,201.52c0.08,5.72-1.91,11.17-5.61,15.32c-3.84,4.32-9.04,6.74-14.63,6.82l-50.59,0.9
				c-0.01,0-0.02,0-0.03,0C307.85,849.49,307.76,849.49,307.67,849.49z M307.85,843.08L307.85,843.08L307.85,843.08z M355.78,616.15
				c-0.03,0-0.06,0-0.09,0l-50.59,0.9c-4.29,0.06-7.7,4.17-7.63,9.16l2.45,201.52c0.07,4.95,3.54,8.94,7.76,8.94
				c0.03,0,0.05,0,0.08,0l50.6-0.9c1.98-0.03,3.84-0.92,5.26-2.52c1.56-1.76,2.41-4.12,2.37-6.64l-2.45-201.52
				C363.47,620.14,360,616.15,355.78,616.15z"/>
		</g>
		<linearGradient id="SVGID_3_" gradientUnits="userSpaceOnUse" x1="249.1341" y1="635.7637" x2="296.9698" y2="635.7637">
			<stop  offset="0" style="stop-color:#FF00FF"/>
			<stop  offset="1" style="stop-color:#ED1E79"/>
		</linearGradient>
		<path class="st2" d="M290.56,642.17h-35.02c-3.54,0-6.41-2.87-6.41-6.41c0-3.54,2.87-6.41,6.41-6.41h35.02
			c3.54,0,6.41,2.87,6.41,6.41C296.97,639.3,294.1,642.17,290.56,642.17z"/>
		<linearGradient id="SVGID_4_" gradientUnits="userSpaceOnUse" x1="249.1341" y1="820.2726" x2="296.9698" y2="820.2726">
			<stop  offset="0" style="stop-color:#FF00FF"/>
			<stop  offset="1" style="stop-color:#ED1E79"/>
		</linearGradient>
		<path class="st3" d="M290.56,826.68h-35.02c-3.54,0-6.41-2.87-6.41-6.41s2.87-6.41,6.41-6.41h35.02c3.54,0,6.41,2.87,6.41,6.41
			S294.1,826.68,290.56,826.68z"/>
		<linearGradient id="SVGID_5_" gradientUnits="userSpaceOnUse" x1="449.1457" y1="670.9886" x2="533.7789" y2="670.9886">
			<stop  offset="0" style="stop-color:#FF00FF"/>
			<stop  offset="1" style="stop-color:#ED1E79"/>
		</linearGradient>
		<path class="st4" d="M455.56,772.38c-2.51,0-4.9-1.49-5.92-3.95c-1.36-3.27,0.19-7.02,3.46-8.37l12.6-5.23
			c33.57-13.93,55.26-46.42,55.26-82.77v-96.04c0-3.54,2.87-6.41,6.41-6.41c3.54,0,6.41,2.87,6.41,6.41v96.04
			c0,41.55-24.79,78.68-63.17,94.61l-12.6,5.23C457.21,772.22,456.37,772.38,455.56,772.38z"/>
		<linearGradient id="SVGID_6_" gradientUnits="userSpaceOnUse" x1="542.2884" y1="773.4753" x2="592.3422" y2="773.4753">
			<stop  offset="0" style="stop-color:#FF00FF"/>
			<stop  offset="1" style="stop-color:#ED1E79"/>
		</linearGradient>
		<path class="st5" d="M585.94,834.91c-0.51,0-1.04-0.06-1.56-0.19c-0.05-0.01-0.11-0.03-0.17-0.04
			c-24.68-6.88-41.92-29.58-41.92-55.2v-61.03c0-3.54,2.87-6.41,6.41-6.41c3.54,0,6.41,2.87,6.41,6.41v61.03
			c0,19.89,13.38,37.51,32.53,42.85c3.35,0.92,5.36,4.35,4.52,7.73C591.42,832.97,588.81,834.91,585.94,834.91z"/>
	</g>
</g>
<linearGradient id="SVGID_7_" gradientUnits="userSpaceOnUse" x1="679.7656" y1="506.5218" x2="815.244" y2="506.5218">
	<stop  offset="0" style="stop-color:#93278F"/>
	<stop  offset="1" style="stop-color:#ED1E79"/>
</linearGradient>
<path class="st6" d="M747.57,566.08c-2.84,0-5.34-1.87-6.14-4.6c-0.84-2.87-9.15-14.39-22.84-23.31c-2.08-1.35-4.34-2.71-6.73-4.14
	c-13.61-8.16-32.25-19.34-32.09-42.94c0.16-22.69,12.06-39.74,30.32-43.44c8.27-1.68,16.99-0.17,24.56,4.23
	c4.91,2.86,9.25,6.86,12.85,11.81c10.26-13.82,25.42-18.02,37.63-15.56c18.14,3.65,29.96,20.41,30.11,42.69
	c0.16,22.74-16.83,33.25-30.48,41.7c-2.92,1.81-5.68,3.52-8.15,5.25c-13.12,9.25-22.08,20.81-22.85,23.5
	c-0.72,2.79-3.21,4.76-6.09,4.81C747.64,566.07,747.6,566.08,747.57,566.08z M716.89,459.76c-1.41,0-2.84,0.14-4.26,0.43
	c-12.07,2.44-19.94,14.6-20.05,30.97c-0.11,16.29,13.09,24.2,25.86,31.86c2.5,1.5,4.86,2.91,7.13,4.4
	c7.56,4.93,16.25,12.62,22.05,19.94c5.32-6.66,13.28-14.19,21.61-20.06c2.77-1.96,5.83-3.85,8.79-5.67
	c12.61-7.8,24.51-15.17,24.4-30.71c-0.13-19.37-10.33-28.31-19.83-30.22c-13.57-2.74-24.46,7.29-29.24,18.43
	c-1.01,2.35-3.32,3.88-5.88,3.89h-0.01c-2.56,0-4.87-1.52-5.88-3.87C736.36,466.98,726.96,459.76,716.89,459.76z"/>
<g>
	<path class="st7" d="M349.86,422.95c-1.07,0-2.15-0.27-3.15-0.83l-113.57-64.26c-3.08-1.74-4.16-5.65-2.42-8.73
		c1.74-3.08,5.65-4.16,8.73-2.42l113.57,64.26c3.08,1.74,4.16,5.65,2.42,8.73C354.27,421.78,352.1,422.95,349.86,422.95z"/>
	<path class="st7" d="M199.16,337.67c-1.07,0-2.15-0.27-3.15-0.83l-66.78-37.79c-3.08-1.74-4.16-5.65-2.42-8.73
		c1.74-3.08,5.65-4.16,8.73-2.42l66.78,37.79c3.08,1.74,4.16,5.65,2.42,8.73C203.56,336.5,201.39,337.67,199.16,337.67z"/>
	<path class="st7" d="M101.32,282.27c-1.07,0-2.15-0.27-3.15-0.83l-13.73-7.77c-3.08-1.74-4.16-5.65-2.42-8.73
		c1.74-3.08,5.65-4.16,8.73-2.42l13.73,7.77c3.08,1.74,4.16,5.65,2.42,8.73C105.72,281.1,103.55,282.27,101.32,282.27z"/>
</g>
<path class="st8" d="M531.02,278.7c-3.54,0-6.41-2.87-6.41-6.41V116.83c0-3.54,2.87-6.41,6.41-6.41s6.41,2.87,6.41,6.41V272.3
	C537.43,275.84,534.56,278.7,531.02,278.7z"/>
<path class="st8" d="M531.02,68.57c-3.54,0-6.41-2.87-6.41-6.41V22.87c0-3.54,2.87-6.41,6.41-6.41s6.41,2.87,6.41,6.41v39.29
	C537.43,65.7,534.56,68.57,531.02,68.57z"/>
<path class="st8" d="M903.57,235.76c-1.93,0-3.84-0.87-5.1-2.52c-2.14-2.81-1.6-6.83,1.21-8.98l8.03-6.12
	c2.82-2.15,6.84-1.6,8.98,1.21c2.14,2.81,1.6,6.83-1.21,8.98l-8.03,6.12C906.29,235.34,904.93,235.76,903.57,235.76z"/>
<path class="st8" d="M744.26,357c-1.93,0-3.84-0.87-5.1-2.53c-2.14-2.82-1.59-6.84,1.22-8.98l118.58-90.19
	c2.82-2.14,6.84-1.59,8.98,1.22c2.14,2.82,1.59,6.84-1.22,8.98L748.13,355.7C746.97,356.58,745.61,357,744.26,357z"/>
<path class="st8" d="M690.05,398.32c-1.93,0-3.84-0.87-5.1-2.52c-2.14-2.81-1.6-6.83,1.21-8.98l23.9-18.22
	c2.82-2.15,6.84-1.6,8.98,1.21c2.14,2.81,1.6,6.83-1.21,8.98l-23.9,18.22C692.77,397.89,691.41,398.32,690.05,398.32z"/>
<path class="st8" d="M111.18,642.17c-2.76,0-5.31-1.8-6.14-4.58c-5-16.76-8.12-46.84-8.25-48.12c-0.36-3.52,2.2-6.67,5.72-7.03
	c3.52-0.36,6.67,2.2,7.03,5.72c0.03,0.3,3.13,30.16,7.78,45.76c1.01,3.39-0.92,6.96-4.31,7.97
	C112.4,642.08,111.78,642.17,111.18,642.17z"/>
<path class="st8" d="M360.63,932.99c-0.74,0-1.5-0.13-2.23-0.4c-65.01-24.19-123.13-65.13-168.08-118.41
	c-2.28-2.7-1.94-6.75,0.77-9.03c2.7-2.28,6.75-1.94,9.03,0.77c43.53,51.6,99.81,91.25,162.76,114.67c3.32,1.23,5,4.92,3.77,8.24
	C365.68,931.4,363.23,932.99,360.63,932.99z"/>
<path class="st8" d="M648.06,929.05c-2.54,0-4.94-1.51-5.94-4.01c-1.32-3.28,0.26-7.01,3.54-8.34
	c71.47-28.86,132.41-77.82,176.24-141.58c2-2.92,5.99-3.66,8.91-1.65c2.92,2,3.66,5.99,1.65,8.91
	c-45.25,65.84-108.19,116.4-182,146.2C649.67,928.9,648.86,929.05,648.06,929.05z"/>
<path class="st8" d="M878.52,680c-0.64,0-1.29-0.1-1.93-0.3c-3.37-1.06-5.25-4.66-4.18-8.04c11.99-37.99,18.07-77.64,18.07-117.87
	c0-22.32-1.89-44.7-5.63-66.52c-0.6-3.49,1.75-6.8,5.23-7.4c3.49-0.6,6.8,1.75,7.4,5.23c3.86,22.53,5.81,45.64,5.81,68.68
	c0,41.53-6.28,82.49-18.66,121.72C883.77,678.25,881.24,680,878.52,680z"/>
<path class="st8" d="M861.17,395.25c-2.43,0-4.76-1.39-5.83-3.75c-2.69-5.9-5.58-11.81-8.56-17.57c-1.63-3.14-0.4-7.01,2.74-8.64
	c3.14-1.63,7.01-0.4,8.64,2.74c3.08,5.95,6.06,12.05,8.84,18.15c1.47,3.22,0.05,7.02-3.17,8.49
	C862.96,395.07,862.06,395.25,861.17,395.25z"/>
<path class="st8" d="M764.19,154.27c-1.46,0-2.92-0.49-4.12-1.51c-2.71-2.28-3.05-6.32-0.77-9.03l34.89-41.43
	c2.28-2.71,6.32-3.05,9.03-0.77c2.71,2.28,3.05,6.32,0.77,9.03l-34.89,41.43C767.83,153.49,766.01,154.27,764.19,154.27z"/>
<path class="st8" d="M349.88,117.61c-2.32,0-4.55-1.26-5.69-3.46l-23.83-45.97c-1.63-3.14-0.4-7.01,2.74-8.64
	c3.14-1.63,7.01-0.4,8.64,2.74l23.83,45.97c1.63,3.14,0.4,7.01-2.74,8.64C351.88,117.38,350.87,117.61,349.88,117.61z"/>
<g>
	<g>
		<g>
			<path class="st8" d="M763.79,687.44h-13.67c-3.54,0-6.41-2.87-6.41-6.41c0-3.54,2.87-6.41,6.41-6.41h13.67
				c3.54,0,6.41,2.87,6.41,6.41C770.2,684.58,767.33,687.44,763.79,687.44z"/>
			<path class="st8" d="M816.76,687.44h-15.38c-3.54,0-6.41-2.87-6.41-6.41c0-3.54,2.87-6.41,6.41-6.41h15.38
				c3.54,0,6.41,2.87,6.41,6.41C823.16,684.58,820.29,687.44,816.76,687.44z"/>
		</g>
		<g>
			<path class="st8" d="M783.01,721.18c-3.54,0-6.41-2.87-6.41-6.41v-13.67c0-3.54,2.87-6.41,6.41-6.41s6.41,2.87,6.41,6.41v13.67
				C789.42,718.32,786.55,721.18,783.01,721.18z"/>
			<path class="st8" d="M783.01,669.93c-3.54,0-6.41-2.87-6.41-6.41v-15.38c0-3.54,2.87-6.41,6.41-6.41s6.41,2.87,6.41,6.41v15.38
				C789.42,667.06,786.55,669.93,783.01,669.93z"/>
		</g>
	</g>
	<g>
		<g>
			<path class="st8" d="M481.91,959.08h-13.67c-3.54,0-6.41-2.87-6.41-6.41c0-3.54,2.87-6.41,6.41-6.41h13.67
				c3.54,0,6.41,2.87,6.41,6.41C488.31,956.21,485.44,959.08,481.91,959.08z"/>
			<path class="st8" d="M534.87,959.08h-15.38c-3.54,0-6.41-2.87-6.41-6.41c0-3.54,2.87-6.41,6.41-6.41h15.38
				c3.54,0,6.41,2.87,6.41,6.41C541.27,956.21,538.41,959.08,534.87,959.08z"/>
		</g>
		<g>
			<path class="st8" d="M501.13,992.82c-3.54,0-6.41-2.87-6.41-6.41v-13.67c0-3.54,2.87-6.41,6.41-6.41s6.41,2.87,6.41,6.41v13.67
				C507.53,989.95,504.66,992.82,501.13,992.82z"/>
			<path class="st8" d="M501.13,941.57c-3.54,0-6.41-2.87-6.41-6.41v-15.38c0-3.54,2.87-6.41,6.41-6.41s6.41,2.87,6.41,6.41v15.38
				C507.53,938.7,504.66,941.57,501.13,941.57z"/>
		</g>
	</g>
	<g>
		<g>
			<path class="st8" d="M116.3,717.34h-13.67c-3.54,0-6.41-2.87-6.41-6.41c0-3.54,2.87-6.41,6.41-6.41h13.67
				c3.54,0,6.41,2.87,6.41,6.41C122.71,714.47,119.84,717.34,116.3,717.34z"/>
			<path class="st8" d="M169.27,717.34h-15.38c-3.54,0-6.41-2.87-6.41-6.41c0-3.54,2.87-6.41,6.41-6.41h15.38
				c3.54,0,6.41,2.87,6.41,6.41C175.67,714.47,172.8,717.34,169.27,717.34z"/>
		</g>
		<g>
			<path class="st8" d="M135.52,751.08c-3.54,0-6.41-2.87-6.41-6.41v-13.67c0-3.54,2.87-6.41,6.41-6.41s6.41,2.87,6.41,6.41v13.67
				C141.93,748.21,139.06,751.08,135.52,751.08z"/>
			<path class="st8" d="M135.52,699.83c-3.54,0-6.41-2.87-6.41-6.41v-15.38c0-3.54,2.87-6.41,6.41-6.41s6.41,2.87,6.41,6.41v15.38
				C141.93,696.96,139.06,699.83,135.52,699.83z"/>
		</g>
	</g>
	<path class="st8" d="M852.46,747.18c-11.45,0-20.76-9.32-20.76-20.77c0-11.45,9.32-20.76,20.76-20.76
		c11.45,0,20.77,9.32,20.77,20.76C873.22,737.86,863.91,747.18,852.46,747.18z M852.46,718.46c-4.38,0-7.95,3.57-7.95,7.95
		c0,4.38,3.57,7.95,7.95,7.95c4.39,0,7.95-3.57,7.95-7.95C860.41,722.03,856.84,718.46,852.46,718.46z"/>
	<path class="st8" d="M688.73,100.35c-11.45,0-20.76-9.31-20.76-20.77s9.32-20.77,20.76-20.77s20.76,9.31,20.76,20.77
		S700.18,100.35,688.73,100.35z M688.73,71.64c-4.38,0-7.95,3.57-7.95,7.95s3.57,7.95,7.95,7.95c4.38,0,7.95-3.57,7.95-7.95
		S693.11,71.64,688.73,71.64z"/>
	<path class="st8" d="M195.21,212.8c-11.45,0-20.76-9.31-20.76-20.77c0-11.45,9.32-20.76,20.76-20.76
		c11.45,0,20.77,9.31,20.77,20.76C215.97,203.48,206.66,212.8,195.21,212.8z M195.21,184.08c-4.38,0-7.95,3.57-7.95,7.95
		s3.57,7.95,7.95,7.95c4.39,0,7.95-3.57,7.95-7.95S199.59,184.08,195.21,184.08z"/>
</g>
<path class="st8" d="M308.96,501.33c-0.26,0-0.51-0.02-0.77-0.05l-42.73-5.12c-3.51-0.42-6.02-3.61-5.6-7.12
	c0.42-3.51,3.61-6.02,7.12-5.6l42.73,5.12c3.51,0.42,6.02,3.61,5.6,7.12C314.92,498.94,312.15,501.33,308.96,501.33z"/>
</svg>
