<?xml version="1.0" encoding="utf-8"?>
<!-- Generator: Adobe Illustrator 24.2.3, SVG Export Plug-In . SVG Version: 6.00 Build 0)  -->
<svg version="1.1" id="Layer_1" xmlns="http://www.w3.org/2000/svg" xmlns:xlink="http://www.w3.org/1999/xlink" x="0px" y="0px"
	 viewBox="0 0 1000 1000" style="enable-background:new 0 0 1000 1000;" xml:space="preserve">
<style type="text/css">
	.st0{fill:url(#SVGID_1_);}
	.st1{fill:url(#SVGID_2_);}
	.st2{fill:url(#SVGID_3_);}
	.st3{fill:url(#SVGID_4_);}
	.st4{fill:url(#SVGID_5_);}
	.st5{fill:url(#SVGID_6_);}
	.st6{fill:url(#SVGID_7_);}
	.st7{fill:url(#SVGID_8_);}
	.st8{fill:url(#SVGID_9_);}
	.st9{fill:url(#SVGID_10_);}
	.st10{fill:url(#SVGID_11_);}
	.st11{opacity:0.3;}
	.st12{fill:#F9BDF2;}
	.st13{fill:url(#SVGID_12_);}
	.st14{fill:url(#SVGID_13_);}
	.st15{fill:url(#SVGID_14_);}
	.st16{fill:url(#SVGID_15_);}
</style>
<g>
	<linearGradient id="SVGID_1_" gradientUnits="userSpaceOnUse" x1="372.8262" y1="239.7159" x2="648.7098" y2="239.7159">
		<stop  offset="0" style="stop-color:#FF00FF"/>
		<stop  offset="1" style="stop-color:#ED1E79"/>
	</linearGradient>
	<path class="st0" d="M644.65,282.99c-0.94,0.45-1.99,0.71-3.1,0.71c-3.96,0-7.17-3.2-7.17-7.16l-0.06-109.38
		c-0.01-7.11-2.78-13.8-7.82-18.82c-5.04-5.03-11.73-7.79-18.84-7.78l-193.08,0.2c-7.11,0.01-13.8,2.78-18.83,7.82
		c-5.03,5.04-7.79,11.73-7.78,18.84l-0.82,178.67c-0.02,3.96-3.24,7.15-7.2,7.13c-3.96-0.02-7.15-3.24-7.13-7.2l0.82-178.63
		c-0.01-10.9,4.24-21.19,11.97-28.94c7.73-7.74,18.01-12.02,28.95-12.03l193.08-0.2c22.59-0.02,40.98,18.33,41,40.92l0.06,109.39
		C648.71,279.38,647.06,281.83,644.65,282.99z"/>
	<linearGradient id="SVGID_2_" gradientUnits="userSpaceOnUse" x1="503.0981" y1="587.6924" x2="648.1462" y2="587.6924">
		<stop  offset="0" style="stop-color:#FF00FF"/>
		<stop  offset="1" style="stop-color:#ED1E79"/>
	</linearGradient>
	<path class="st1" d="M624.89,655.32c-5.36,2.58-11.36,4.03-17.69,4.04l-96.93,0.1c-3.96,0-7.17-3.2-7.17-7.16
		c0-3.96,3.2-7.17,7.16-7.17l96.93-0.1c14.68-0.02,26.62-11.98,26.61-26.66l0.03-95.3c0-3.96,3.21-7.16,7.17-7.16
		c3.96,0,7.16,3.21,7.16,7.17l-0.03,95.29C648.13,634.62,638.63,648.7,624.89,655.32z"/>
	<linearGradient id="SVGID_3_" gradientUnits="userSpaceOnUse" x1="489.4916" y1="578.5419" x2="645.1805" y2="578.5419">
		<stop  offset="0" style="stop-color:#FF00FF"/>
		<stop  offset="1" style="stop-color:#ED1E79"/>
	</linearGradient>
	<path class="st2" d="M641.12,584.93c-0.94,0.45-1.99,0.71-3.1,0.71l-141.36,0.15c-3.96,0-7.17-3.2-7.17-7.16
		c0-3.96,3.2-7.17,7.16-7.17l141.36-0.15c3.96,0,7.17,3.2,7.17,7.16C645.18,581.31,643.53,583.77,641.12,584.93z"/>
	<linearGradient id="SVGID_4_" gradientUnits="userSpaceOnUse" x1="381.1933" y1="175.1962" x2="645.7695" y2="175.1962">
		<stop  offset="0" style="stop-color:#FF00FF"/>
		<stop  offset="1" style="stop-color:#ED1E79"/>
	</linearGradient>
	<path class="st3" d="M641.71,181.52c-0.94,0.45-1.99,0.71-3.1,0.71l-250.25,0.26c-3.96,0-7.17-3.2-7.17-7.16
		c0-3.96,3.2-7.17,7.16-7.17l250.25-0.26c3.96,0,7.17,3.2,7.17,7.16C645.77,177.91,644.12,180.37,641.71,181.52z"/>
	<linearGradient id="SVGID_5_" gradientUnits="userSpaceOnUse" x1="500.0325" y1="612.0203" x2="541.1039" y2="612.0203">
		<stop  offset="0" style="stop-color:#FF00FF"/>
		<stop  offset="1" style="stop-color:#ED1E79"/>
	</linearGradient>
	<path class="st4" d="M537.05,618.46c-0.94,0.45-1.99,0.71-3.1,0.71l-26.74,0.03c-3.96,0-7.17-3.2-7.17-7.16
		c0-3.96,3.2-7.17,7.16-7.17l26.74-0.03c3.96,0,7.17,3.2,7.17,7.16C541.11,614.84,539.45,617.3,537.05,618.46z"/>
	<linearGradient id="SVGID_6_" gradientUnits="userSpaceOnUse" x1="287.1439" y1="588.4653" x2="514.654" y2="588.4653">
		<stop  offset="0" style="stop-color:#FF00FF"/>
		<stop  offset="1" style="stop-color:#ED1E79"/>
	</linearGradient>
	<path class="st5" d="M346.56,869.29c-0.94,0.45-1.99,0.71-3.1,0.71c-3.96,0-7.17-3.2-7.17-7.16l-0.16-157.14l-41.55-149.13
		c-10.92-24.08-9.74-52.17,3.19-75.26l86.75-153.24c5.54-9.84,14.61-16.86,25.54-19.75c10.93-2.89,22.29-1.28,31.98,4.55
		c18.77,11.27,25.55,35.31,15.44,54.73l-60.2,115.66c12.99,5.4,39.96,18.44,64.93,42.05c19.98,18.89,34.47,40.62,43.08,64.61
		c10.74,29.92,12.25,63.29,4.49,99.18c-0.84,3.87-4.65,6.32-8.52,5.49c-3.87-0.84-6.32-4.65-5.49-8.52
		c7.16-33.11,5.86-63.74-3.87-91.03c-7.78-21.81-20.96-41.65-39.18-58.98c-31.43-29.88-67.41-42.07-67.77-42.19
		c-1.99-0.66-3.59-2.16-4.38-4.11c-0.79-1.94-0.69-4.14,0.28-6l63.91-122.79c6.62-12.71,2.18-28.46-10.11-35.84
		c-6.35-3.81-13.78-4.87-20.94-2.98c-7.16,1.89-13.1,6.49-16.73,12.94l-86.75,153.23c-10.77,19.24-11.69,42.71-2.42,62.76
		c0.16,0.35,0.29,0.71,0.4,1.08l41.97,150.61c0.17,0.62,0.26,1.27,0.26,1.92l0.16,158.12C350.62,865.68,348.96,868.14,346.56,869.29
		z"/>
	<linearGradient id="SVGID_7_" gradientUnits="userSpaceOnUse" x1="589.4789" y1="314.2845" x2="715.8705" y2="314.2845">
		<stop  offset="0" style="stop-color:#FF00FF"/>
		<stop  offset="1" style="stop-color:#ED1E79"/>
	</linearGradient>
	<path class="st6" d="M644.72,370.66c-15.19,7.33-34.03,4-45.69-9.28l0,0c-14.01-15.96-12.42-40.34,3.54-54.35l49.4-43.36
		c7.73-6.79,17.64-10.16,27.91-9.49c10.27,0.67,19.66,5.29,26.44,13.03c14.01,15.96,12.42,40.34-3.54,54.35l-49.4,43.36
		C650.7,367.27,647.79,369.18,644.72,370.66z M666.9,270.8c-1.96,0.94-3.8,2.16-5.48,3.63l-49.4,43.36
		c-10.02,8.8-11.02,24.11-2.22,34.13l0,0c8.8,10.02,24.11,11.02,34.14,2.22l49.4-43.36c10.02-8.8,11.02-24.11,2.22-34.13
		c-4.26-4.86-10.16-7.76-16.61-8.18C674.73,268.2,670.6,269.01,666.9,270.8z"/>
	<linearGradient id="SVGID_8_" gradientUnits="userSpaceOnUse" x1="607.1592" y1="383.3528" x2="733.5891" y2="383.3528">
		<stop  offset="0" style="stop-color:#FF00FF"/>
		<stop  offset="1" style="stop-color:#ED1E79"/>
	</linearGradient>
	<path class="st7" d="M662.42,439.73c-15.19,7.33-34.03,4-45.69-9.28l0,0c-6.79-7.73-10.16-17.64-9.49-27.91
		c0.67-10.27,5.29-19.66,13.03-26.44l49.4-43.36c7.73-6.79,17.64-10.16,27.91-9.49c10.27,0.67,19.66,5.29,26.44,13.03
		c6.79,7.73,10.16,17.64,9.49,27.91c-0.67,10.27-5.29,19.66-13.03,26.44l-49.4,43.36C668.4,436.34,665.49,438.25,662.42,439.73z
		 M627.5,421c8.8,10.02,24.11,11.02,34.14,2.22l49.4-43.36c10.02-8.8,11.02-24.11,2.22-34.14c-8.8-10.02-24.11-11.02-34.13-2.22
		l-49.4,43.36C619.7,395.66,618.7,410.97,627.5,421L627.5,421z"/>
	<linearGradient id="SVGID_9_" gradientUnits="userSpaceOnUse" x1="607.2455" y1="467.1662" x2="733.656" y2="467.1662">
		<stop  offset="0" style="stop-color:#FF00FF"/>
		<stop  offset="1" style="stop-color:#ED1E79"/>
	</linearGradient>
	<path class="st8" d="M662.51,523.55c-15.19,7.33-34.03,4-45.69-9.28c0,0,0,0,0,0c-6.79-7.73-10.16-17.64-9.49-27.91
		c0.67-10.27,5.29-19.66,13.03-26.44l49.4-43.36c7.73-6.79,17.64-10.16,27.91-9.49c10.27,0.67,19.66,5.29,26.44,13.03
		c14.01,15.96,12.42,40.34-3.54,54.35l-49.4,43.36C668.49,520.15,665.57,522.07,662.51,523.55z M627.58,504.81
		c8.8,10.02,24.11,11.02,34.13,2.22l49.4-43.36c10.02-8.8,11.02-24.11,2.22-34.13c-4.26-4.86-10.16-7.76-16.61-8.18
		c-6.45-0.42-12.67,1.7-17.53,5.96l-49.4,43.36C619.78,479.48,618.79,494.79,627.58,504.81L627.58,504.81z"/>
	<linearGradient id="SVGID_10_" gradientUnits="userSpaceOnUse" x1="526.4319" y1="770.705" x2="614.1582" y2="770.705">
		<stop  offset="0" style="stop-color:#FF00FF"/>
		<stop  offset="1" style="stop-color:#ED1E79"/>
	</linearGradient>
	<path class="st9" d="M536.86,895.93c-0.94,0.45-1.99,0.71-3.1,0.71c-3.96,0-7.17-3.2-7.17-7.16l-0.15-148.17
		c0-2.81,1.62-5.36,4.2-6.53c61.51-27.96,69.19-83.2,69.26-83.76c0.5-3.92,4.08-6.7,8.01-6.21c3.93,0.5,6.7,4.08,6.21,8.01
		c-0.08,0.66-2.17,16.42-12.81,35.98c-9.36,17.22-27.39,40.76-60.53,57.03l0.15,143.62C540.91,892.32,539.26,894.78,536.86,895.93z"
		/>
</g>
<linearGradient id="SVGID_11_" gradientUnits="userSpaceOnUse" x1="122.1264" y1="547.408" x2="874.061" y2="547.408">
	<stop  offset="0" style="stop-color:#FF00FF"/>
	<stop  offset="1" style="stop-color:#ED1E79"/>
</linearGradient>
<path class="st10" d="M661.36,867.63c-45.7,22.04-94.36,34.47-144.62,36.94c-48.54,2.39-96.52-4.56-142.6-20.66
	c-46.08-16.1-87.96-40.53-124.45-72.63c-37.79-33.23-68.12-73.25-90.16-118.95c-22.04-45.7-34.47-94.36-36.94-144.62
	c-2.39-48.54,4.56-96.52,20.66-142.6c16.1-46.08,40.53-87.96,72.63-124.45c33.23-37.79,73.25-68.12,118.95-90.16
	c3.56-1.72,7.85-0.22,9.56,3.34s0.22,7.85-3.34,9.56c-43.97,21.2-82.46,50.38-114.42,86.72c-30.87,35.1-54.37,75.38-69.86,119.71
	c-15.49,44.33-22.17,90.49-19.87,137.17c2.38,48.33,14.34,95.13,35.54,139.1s50.38,82.46,86.72,114.42
	c35.1,30.87,75.38,54.37,119.71,69.86c44.33,15.49,90.49,22.17,137.17,19.87c48.33-2.38,95.13-14.34,139.1-35.54
	c43.97-21.2,82.46-50.38,114.42-86.72c30.87-35.1,54.37-75.38,69.86-119.71c15.49-44.33,22.17-90.49,19.87-137.17
	c-2.38-48.33-14.34-95.13-35.54-139.1c-33.47-69.4-86.93-125.25-154.62-161.52c-3.49-1.87-4.8-6.21-2.93-9.7
	c1.87-3.49,6.21-4.8,9.7-2.93c70.38,37.71,125.97,95.78,160.76,167.92c22.04,45.7,34.47,94.36,36.94,144.62
	c2.39,48.54-4.56,96.52-20.66,142.6c-16.1,46.08-40.53,87.96-72.63,124.45C747.09,815.25,707.07,845.59,661.36,867.63z"/>
<g class="st11">
	<g>
		<g>
			<path class="st12" d="M153.6,870.78l-13.77,6.64c-3.56,1.72-7.85,0.22-9.56-3.34c-1.72-3.56-0.22-7.85,3.34-9.56l13.77-6.64
				c3.56-1.72,7.85-0.22,9.56,3.34C158.66,864.78,157.16,869.06,153.6,870.78z"/>
			<path class="st12" d="M206.94,845.06l-15.49,7.47c-3.56,1.72-7.85,0.22-9.56-3.34c-1.72-3.56-0.22-7.85,3.34-9.56l15.49-7.47
				c3.56-1.72,7.85-0.22,9.56,3.34C212,839.06,210.5,843.34,206.94,845.06z"/>
		</g>
		<g>
			<path class="st12" d="M189.35,895.43c-3.56,1.72-7.85,0.22-9.56-3.34l-6.64-13.77c-1.72-3.56-0.22-7.85,3.34-9.56
				c3.56-1.72,7.85-0.22,9.56,3.34l6.64,13.77C194.41,889.43,192.91,893.71,189.35,895.43z"/>
			<path class="st12" d="M164.45,843.81c-3.56,1.72-7.85,0.22-9.56-3.34l-7.47-15.49c-1.72-3.56-0.22-7.85,3.34-9.56
				c3.56-1.72,7.85-0.22,9.56,3.34l7.47,15.49C169.51,837.81,168.02,842.09,164.45,843.81z"/>
		</g>
	</g>
	<g>
		<g>
			<path class="st12" d="M733.87,682.14l-13.77,6.64c-3.56,1.72-7.85,0.22-9.56-3.34c-1.72-3.56-0.22-7.85,3.34-9.56l13.77-6.64
				c3.56-1.72,7.85-0.22,9.56,3.34C738.93,676.14,737.44,680.42,733.87,682.14z"/>
			<path class="st12" d="M787.21,656.42l-15.49,7.47c-3.56,1.72-7.85,0.22-9.56-3.34c-1.72-3.56-0.22-7.85,3.34-9.56l15.49-7.47
				c3.56-1.72,7.85-0.22,9.56,3.34C792.27,650.42,790.78,654.7,787.21,656.42z"/>
		</g>
		<g>
			<path class="st12" d="M769.62,706.79c-3.56,1.72-7.85,0.22-9.56-3.34l-6.64-13.77c-1.72-3.56-0.22-7.85,3.34-9.56
				c3.56-1.72,7.85-0.22,9.56,3.34l6.64,13.77C774.68,700.79,773.18,705.07,769.62,706.79z"/>
			<path class="st12" d="M744.72,655.17c-3.56,1.72-7.85,0.22-9.56-3.34l-7.47-15.49c-1.72-3.56-0.22-7.85,3.34-9.56
				s7.85-0.22,9.56,3.34l7.47,15.49C749.78,649.17,748.29,653.45,744.72,655.17z"/>
		</g>
	</g>
	<g>
		<g>
			<path class="st12" d="M689.57,75.74l-13.77,6.64c-3.56,1.72-7.85,0.22-9.56-3.34c-1.72-3.56-0.22-7.85,3.34-9.56l13.77-6.64
				c3.56-1.72,7.85-0.22,9.56,3.34C694.63,69.74,693.14,74.02,689.57,75.74z"/>
			<path class="st12" d="M742.91,50.02l-15.49,7.47c-3.56,1.72-7.85,0.22-9.56-3.34s-0.22-7.85,3.34-9.56l15.49-7.47
				c3.56-1.72,7.85-0.22,9.56,3.34C747.97,44.02,746.48,48.3,742.91,50.02z"/>
		</g>
		<g>
			<path class="st12" d="M725.32,100.39c-3.56,1.72-7.85,0.22-9.56-3.34l-6.64-13.77c-1.72-3.56-0.22-7.85,3.34-9.56
				s7.85-0.22,9.56,3.34l6.64,13.77C730.38,94.39,728.88,98.67,725.32,100.39z"/>
			<path class="st12" d="M700.43,48.77c-3.56,1.72-7.85,0.22-9.56-3.34l-7.47-15.49c-1.72-3.56-0.22-7.85,3.34-9.56
				c3.56-1.72,7.85-0.22,9.56,3.34l7.47,15.49C705.48,42.77,703.99,47.05,700.43,48.77z"/>
		</g>
	</g>
	<path class="st12" d="M320.92,973.53c-11.53,5.56-25.44,0.7-31-10.83c-5.56-11.53-0.7-25.44,10.83-31
		c11.53-5.56,25.44-0.7,31,10.83C337.3,954.07,332.45,967.97,320.92,973.53z M306.97,944.61c-4.42,2.13-6.28,7.45-4.15,11.87
		c2.13,4.42,7.46,6.28,11.87,4.15c4.42-2.13,6.28-7.46,4.15-11.87C316.71,944.34,311.38,942.48,306.97,944.61z"/>
	<path class="st12" d="M813.99,236.98c-11.53,5.56-25.44,0.7-31-10.83c-5.56-11.53-0.7-25.44,10.83-31
		c11.53-5.56,25.44-0.7,31,10.83C830.38,217.51,825.52,231.42,813.99,236.98z M800.04,208.06c-4.42,2.13-6.28,7.45-4.15,11.87
		c2.13,4.42,7.46,6.28,11.87,4.15c4.42-2.13,6.28-7.46,4.15-11.87S804.46,205.93,800.04,208.06z"/>
</g>
<g class="st11">
	<path class="st12" d="M580.72,96.95c-1.32,0.64-2.84,0.87-4.39,0.59c-16.71-3.04-33.76-5.14-50.69-6.22
		c-3.95-0.25-6.94-3.66-6.69-7.61c0.25-3.95,3.66-6.94,7.61-6.69c17.48,1.12,35.09,3.28,52.34,6.42c3.89,0.71,6.47,4.44,5.76,8.33
		C584.23,94.12,582.71,95.99,580.72,96.95z"/>
	<path class="st12" d="M196.93,209.69c-2.75,1.33-6.15,0.78-8.35-1.57c-2.7-2.89-2.54-7.43,0.35-10.12
		c33.26-31.04,71.09-56.89,112.45-76.83c32.34-15.6,66.38-27.33,101.15-34.86c3.87-0.84,7.68,1.62,8.52,5.48
		c0.84,3.87-1.62,7.68-5.48,8.52c-33.67,7.3-66.63,18.66-97.96,33.76c-40.06,19.32-76.7,44.35-108.9,74.4
		C198.17,208.98,197.57,209.38,196.93,209.69z"/>
	<path class="st12" d="M84.87,376.45c-1.71,0.83-3.75,0.97-5.67,0.24c-3.7-1.41-5.55-5.55-4.14-9.25
		c3.48-9.11,7.3-18.21,11.35-27.07c1.65-3.6,5.9-5.18,9.49-3.53c3.6,1.65,5.18,5.9,3.53,9.49c-3.92,8.57-7.62,17.39-10.99,26.22
		C87.77,374.33,86.46,375.68,84.87,376.45z"/>
	<path class="st12" d="M127.59,778.62c-3.2,1.54-7.13,0.5-9.11-2.56c-10.4-16.03-19.92-32.95-28.28-50.29
		c-8.32-17.25-15.61-35.14-21.66-53.17c-18.79-56.01-26.33-114.29-22.4-173.23c0.26-3.95,3.68-6.93,7.62-6.67
		c3.95,0.26,6.93,3.68,6.67,7.62c-3.8,57.07,3.5,113.5,21.69,167.72c5.86,17.46,12.92,34.79,20.98,51.51
		c8.1,16.8,17.32,33.19,27.39,48.72c2.15,3.32,1.21,7.75-2.11,9.91C128.13,778.34,127.86,778.49,127.59,778.62z"/>
	<path class="st12" d="M468.45,980.08c-1.1,0.53-2.34,0.78-3.64,0.69c-20.01-1.49-40.12-4.35-59.78-8.49
		c-3.87-0.82-6.35-4.62-5.53-8.49c0.82-3.87,4.62-6.35,8.49-5.53c19.04,4.01,38.52,6.78,57.89,8.22c3.95,0.29,6.91,3.73,6.61,7.68
		C472.29,976.8,470.68,979,468.45,980.08z"/>
	<path class="st12" d="M694.8,936.96c-36.37,17.54-74.75,30.14-114.07,37.46c-3.89,0.72-7.63-1.84-8.35-5.73
		c-0.72-3.89,1.84-7.63,5.73-8.35c38.08-7.09,75.25-19.3,110.47-36.28c28.49-13.74,55.44-30.49,80.12-49.8
		c3.11-2.44,7.62-1.89,10.06,1.23c2.44,3.12,1.89,7.62-1.23,10.06C752.04,905.48,724.21,922.78,694.8,936.96z"/>
	<path class="st12" d="M866.77,790.61c-2.25,1.09-5.01,0.96-7.21-0.57c-3.25-2.26-4.05-6.73-1.78-9.97
		c7.02-10.09,13.71-20.6,19.86-31.26c1.98-3.43,6.36-4.6,9.79-2.62c3.43,1.98,4.6,6.36,2.62,9.79c-6.36,11-13.26,21.86-20.51,32.28
		C868.8,789.3,867.85,790.09,866.77,790.61z"/>
	<path class="st12" d="M928.85,661.04c-1.54,0.74-3.36,0.94-5.13,0.42c-3.8-1.12-5.97-5.1-4.85-8.89
		c20.56-69.97,23.37-144.43,8.13-215.33c-0.83-3.87,1.63-7.68,5.5-8.51c3.87-0.83,7.68,1.63,8.51,5.5
		c15.74,73.23,12.84,150.13-8.39,222.38C932.02,658.63,930.61,660.19,928.85,661.04z"/>
	<path class="st12" d="M902.65,341.92c-3.56,1.72-7.85,0.22-9.56-3.34c-5.73-11.88-12.05-23.62-18.77-34.88
		c-5.5-9.21-11.41-18.33-17.57-27.09c-2.27-3.24-1.49-7.71,1.75-9.98c3.24-2.27,7.71-1.49,9.98,1.75
		c6.35,9.05,12.46,18.46,18.14,27.97c6.95,11.63,13.47,23.74,19.38,36C907.71,335.92,906.21,340.2,902.65,341.92z"/>
</g>
<linearGradient id="SVGID_12_" gradientUnits="userSpaceOnUse" x1="406.5911" y1="220.5741" x2="614.8136" y2="220.5741">
	<stop  offset="0" style="stop-color:#FF00FF"/>
	<stop  offset="1" style="stop-color:#ED1E79"/>
</linearGradient>
<path class="st13" d="M607.17,228.22H414.23c-4.2,0-7.64-3.44-7.64-7.64v0c0-4.2,3.44-7.64,7.64-7.64h192.94
	c4.2,0,7.64,3.44,7.64,7.64v0C614.81,224.78,611.38,228.22,607.17,228.22z"/>
<linearGradient id="SVGID_13_" gradientUnits="userSpaceOnUse" x1="406.5911" y1="255.9147" x2="614.8136" y2="255.9147">
	<stop  offset="0" style="stop-color:#FF00FF"/>
	<stop  offset="1" style="stop-color:#ED1E79"/>
</linearGradient>
<path class="st14" d="M607.17,263.56H414.23c-4.2,0-7.64-3.44-7.64-7.64v0c0-4.2,3.44-7.64,7.64-7.64h192.94
	c4.2,0,7.64,3.44,7.64,7.64v0C614.81,260.12,611.38,263.56,607.17,263.56z"/>
<linearGradient id="SVGID_14_" gradientUnits="userSpaceOnUse" x1="406.5911" y1="288.8673" x2="575.6525" y2="288.8673">
	<stop  offset="0" style="stop-color:#FF00FF"/>
	<stop  offset="1" style="stop-color:#ED1E79"/>
</linearGradient>
<path class="st15" d="M567.65,296.99H414.59c-4.4,0-8-3.6-8-8v-0.24c0-4.4,3.6-8,8-8h153.06c4.4,0,8,3.6,8,8v0.24
	C575.65,293.39,572.05,296.99,567.65,296.99z"/>
<linearGradient id="SVGID_15_" gradientUnits="userSpaceOnUse" x1="458.1691" y1="430.2294" x2="583.2937" y2="430.2294">
	<stop  offset="0" style="stop-color:#FF00FF"/>
	<stop  offset="1" style="stop-color:#ED1E79"/>
</linearGradient>
<path class="st16" d="M575.29,438.35H466.17c-4.4,0-8-3.6-8-8v-0.24c0-4.4,3.6-8,8-8h109.12c4.4,0,8,3.6,8,8v0.24
	C583.29,434.75,579.69,438.35,575.29,438.35z"/>
</svg>
