<?xml version="1.0" encoding="utf-8"?>
<!-- Generator: Adobe Illustrator 24.2.3, SVG Export Plug-In . SVG Version: 6.00 Build 0)  -->
<svg version="1.1" id="Layer_1" xmlns="http://www.w3.org/2000/svg" xmlns:xlink="http://www.w3.org/1999/xlink" x="0px" y="0px"
	 viewBox="0 0 1000 1000" style="enable-background:new 0 0 1000 1000;" xml:space="preserve">
<style type="text/css">
	.st0{fill:url(#SVGID_1_);}
	.st1{fill:url(#SVGID_2_);}
	.st2{fill:#F9BDF2;}
</style>
<g>
	
		<linearGradient id="SVGID_1_" gradientUnits="userSpaceOnUse" x1="594.2809" y1="352.169" x2="1092.3959" y2="352.169" gradientTransform="matrix(0.7071 0.7071 -0.7071 0.7071 172.319 -360.0673)">
		<stop  offset="0" style="stop-color:#FF00FF"/>
		<stop  offset="1" style="stop-color:#ED1E79"/>
	</linearGradient>
	<path class="st0" d="M446.11,711.76c-31.73-11.08-60.35-28.05-85.05-50.44c-23.86-21.62-43.08-47.35-57.12-76.47
		c-14.05-29.13-22.21-60.19-24.28-92.31c-2.13-33.27,2.4-66.22,13.49-97.95c11.08-31.73,28.05-60.35,50.44-85.05
		c21.62-23.86,47.35-43.08,76.47-57.12c29.13-14.05,60.19-22.21,92.31-24.28c33.27-2.13,66.22,2.4,97.95,13.49
		c2.47,0.86,3.78,3.57,2.92,6.04s-3.57,3.78-6.04,2.92c-30.53-10.66-62.23-15.03-94.22-12.98c-30.9,1.98-60.78,9.84-88.8,23.35
		c-28.02,13.51-52.77,32-73.56,54.95c-21.53,23.75-37.85,51.28-48.51,81.8s-15.03,62.23-12.98,94.22
		c1.98,30.9,9.84,60.78,23.35,88.8c13.51,28.02,32,52.77,54.95,73.56c23.75,21.53,51.28,37.85,81.8,48.51
		c30.53,10.66,62.23,15.03,94.22,12.98c30.9-1.98,60.78-9.84,88.8-23.35c28.02-13.51,52.77-32,73.56-54.95
		c21.53-23.75,37.85-51.28,48.51-81.8c16.83-48.18,17.95-99.39,3.23-148.09c-0.76-2.51,0.66-5.16,3.17-5.92
		c2.51-0.76,5.16,0.66,5.92,3.17c15.3,50.63,14.14,103.87-3.35,153.96c-11.08,31.73-28.05,60.35-50.44,85.05
		c-21.62,23.86-47.35,43.08-76.47,57.12c-29.13,14.05-60.19,22.21-92.31,24.28C510.8,727.38,477.84,722.84,446.11,711.76z"/>
	<linearGradient id="SVGID_2_" gradientUnits="userSpaceOnUse" x1="349.4122" y1="419.5201" x2="840.3854" y2="419.5201">
		<stop  offset="0" style="stop-color:#FF00FF"/>
		<stop  offset="1" style="stop-color:#ED1E79"/>
	</linearGradient>
	<path class="st1" d="M480.03,633.31c-2.05,0-4.11-0.71-5.78-2.14L352.51,526.66c-3.66-3.14-4.14-8.64-1.08-12.37l49.71-60.62
		c1.52-1.86,3.73-3.02,6.12-3.22c2.39-0.2,4.76,0.58,6.57,2.15l63.02,54.9l295.08-299.27c1.66-1.68,3.91-2.52,6.27-2.52
		c0.02,0,0.04,0,0.05,0c2.34,0,4.59,0.8,6.25,2.44l53.26,52.71c3.47,3.44,3.51,9.01,0.08,12.5L486.36,630.67
		C484.63,632.44,482.34,633.31,480.03,633.31z M370.66,518.84l108.86,93.45L818.97,267.2l-40.65-40.28l-294.69,299
		c-3.29,3.34-8.62,3.54-12.16,0.46l-62.42-54.38L370.66,518.84z"/>
</g>
<g>
	<g>
		<g>
			<path class="st2" d="M91.09,629.6H76.87c-3.68,0-6.67-2.98-6.67-6.67s2.98-6.67,6.67-6.67h14.22c3.68,0,6.67,2.98,6.67,6.67
				S94.77,629.6,91.09,629.6z"/>
			<path class="st2" d="M146.2,629.6h-16c-3.68,0-6.67-2.98-6.67-6.67s2.98-6.67,6.67-6.67h16c3.68,0,6.67,2.98,6.67,6.67
				S149.88,629.6,146.2,629.6z"/>
		</g>
		<g>
			<path class="st2" d="M111.09,664.71c-3.68,0-6.67-2.98-6.67-6.67v-14.22c0-3.68,2.98-6.67,6.67-6.67s6.67,2.98,6.67,6.67v14.22
				C117.75,661.72,114.77,664.71,111.09,664.71z"/>
			<path class="st2" d="M111.09,611.37c-3.68,0-6.67-2.98-6.67-6.67v-16c0-3.68,2.98-6.67,6.67-6.67s6.67,2.98,6.67,6.67v16
				C117.75,608.39,114.77,611.37,111.09,611.37z"/>
		</g>
	</g>
	<g>
		<g>
			<path class="st2" d="M715.06,738.92h-14.22c-3.68,0-6.67-2.98-6.67-6.67s2.98-6.67,6.67-6.67h14.22c3.68,0,6.67,2.98,6.67,6.67
				S718.74,738.92,715.06,738.92z"/>
			<path class="st2" d="M770.17,738.92h-16c-3.68,0-6.67-2.98-6.67-6.67s2.98-6.67,6.67-6.67h16c3.68,0,6.67,2.98,6.67,6.67
				S773.85,738.92,770.17,738.92z"/>
		</g>
		<g>
			<path class="st2" d="M735.06,774.03c-3.68,0-6.67-2.98-6.67-6.67v-14.22c0-3.68,2.98-6.67,6.67-6.67s6.67,2.98,6.67,6.67v14.22
				C741.72,771.05,738.74,774.03,735.06,774.03z"/>
			<path class="st2" d="M735.06,720.7c-3.68,0-6.67-2.98-6.67-6.67v-16c0-3.68,2.98-6.67,6.67-6.67s6.67,2.98,6.67,6.67v16
				C741.72,717.72,738.74,720.7,735.06,720.7z"/>
		</g>
	</g>
	<g>
		<g>
			<path class="st2" d="M861.72,179.84H847.5c-3.68,0-6.67-2.98-6.67-6.67c0-3.68,2.98-6.67,6.67-6.67h14.22
				c3.68,0,6.67,2.98,6.67,6.67C868.38,176.85,865.4,179.84,861.72,179.84z"/>
			<path class="st2" d="M916.83,179.84h-16c-3.68,0-6.67-2.98-6.67-6.67c0-3.68,2.98-6.67,6.67-6.67h16c3.68,0,6.67,2.98,6.67,6.67
				C923.49,176.85,920.51,179.84,916.83,179.84z"/>
		</g>
		<g>
			<path class="st2" d="M881.72,214.95c-3.68,0-6.67-2.98-6.67-6.67v-14.22c0-3.68,2.98-6.67,6.67-6.67s6.67,2.98,6.67,6.67v14.22
				C888.38,211.96,885.4,214.95,881.72,214.95z"/>
			<path class="st2" d="M881.72,161.62c-3.68,0-6.67-2.98-6.67-6.67v-16c0-3.68,2.98-6.67,6.67-6.67s6.67,2.98,6.67,6.67v16
				C888.38,158.63,885.4,161.62,881.72,161.62z"/>
		</g>
	</g>
	<path class="st2" d="M189.8,783.35c-11.91,0-21.61-9.69-21.61-21.61c0-11.91,9.69-21.61,21.61-21.61
		c11.91,0,21.61,9.69,21.61,21.61C211.4,773.66,201.71,783.35,189.8,783.35z M189.8,753.47c-4.56,0-8.27,3.71-8.27,8.27
		c0,4.56,3.71,8.27,8.27,8.27s8.27-3.71,8.27-8.27C198.07,757.18,194.36,753.47,189.8,753.47z"/>
	<path class="st2" d="M900.83,365.28c-11.91,0-21.61-9.69-21.61-21.61c0-11.91,9.69-21.61,21.61-21.61s21.61,9.69,21.61,21.61
		C922.43,355.59,912.74,365.28,900.83,365.28z M900.83,335.4c-4.56,0-8.27,3.71-8.27,8.27s3.71,8.27,8.27,8.27s8.27-3.71,8.27-8.27
		S905.39,335.4,900.83,335.4z"/>
</g>
<g>
	<path class="st2" d="M755.51,153.61c-1.36,0-2.74-0.42-3.92-1.28c-12.78-9.31-26.23-17.95-39.97-25.7
		c-3.21-1.81-4.34-5.87-2.54-9.08c1.81-3.21,5.87-4.34,9.08-2.54c14.2,8,28.09,16.93,41.28,26.54c2.98,2.17,3.63,6.34,1.46,9.31
		C759.6,152.66,757.57,153.61,755.51,153.61z"/>
	<path class="st2" d="M388.25,92.98c-2.84,0-5.48-1.83-6.36-4.69c-1.09-3.52,0.87-7.25,4.39-8.35C426.69,67.37,468.85,61,511.58,61
		c33.42,0,66.68,3.92,98.88,11.67c3.58,0.86,5.78,4.46,4.92,8.04c-0.86,3.58-4.46,5.79-8.04,4.92c-31.17-7.5-63.39-11.3-95.76-11.3
		c-41.39,0-82.21,6.17-121.35,18.35C389.57,92.88,388.9,92.98,388.25,92.98z"/>
	<path class="st2" d="M226.91,187.46c-1.77,0-3.54-0.7-4.85-2.09c-2.53-2.68-2.41-6.9,0.27-9.42c6.6-6.23,13.48-12.32,20.45-18.1
		c2.83-2.35,7.04-1.96,9.39,0.88c2.35,2.83,1.96,7.04-0.88,9.39c-6.76,5.6-13.42,11.5-19.81,17.53
		C230.19,186.86,228.55,187.46,226.91,187.46z"/>
	<path class="st2" d="M100.15,541.83c-3.31,0-6.18-2.46-6.61-5.83c-2.24-17.64-3.38-35.67-3.38-53.59c0-17.82,1.12-35.76,3.34-53.32
		c6.89-54.54,24.13-106.44,51.25-154.26c1.82-3.2,5.88-4.33,9.09-2.51c3.2,1.82,4.33,5.88,2.51,9.09
		c-26.25,46.3-42.95,96.55-49.62,149.35c-2.15,17.01-3.24,34.39-3.24,51.65c0,17.35,1.1,34.82,3.27,51.91
		c0.46,3.65-2.12,6.99-5.77,7.45C100.71,541.81,100.43,541.83,100.15,541.83z"/>
	<path class="st2" d="M304.43,848.48c-1.13,0-2.28-0.29-3.33-0.89c-16.17-9.34-31.87-19.86-46.68-31.29
		c-2.92-2.25-3.46-6.43-1.21-9.35c2.25-2.92,6.43-3.46,9.35-1.21c14.34,11.06,29.55,21.25,45.2,30.3c3.19,1.84,4.28,5.92,2.44,9.11
		C308.97,847.28,306.73,848.48,304.43,848.48z"/>
	<path class="st2" d="M511.58,903.83c-37.57,0-74.84-4.95-110.76-14.71c-3.55-0.97-5.65-4.63-4.69-8.18
		c0.97-3.55,4.63-5.65,8.18-4.69c34.78,9.45,70.87,14.24,107.26,14.24c29.43,0,58.8-3.15,87.29-9.35c3.6-0.78,7.15,1.5,7.93,5.09
		c0.78,3.6-1.5,7.15-5.09,7.93C572.29,900.58,541.97,903.83,511.58,903.83z"/>
	<path class="st2" d="M714.89,850.67c-2.33,0-4.59-1.22-5.81-3.4c-1.81-3.21-0.67-7.27,2.54-9.08c9.97-5.62,19.82-11.73,29.28-18.17
		c3.04-2.07,7.19-1.28,9.26,1.76c2.07,3.04,1.28,7.19-1.76,9.26c-9.77,6.65-19.95,12.96-30.24,18.77
		C717.13,850.4,716,850.67,714.89,850.67z"/>
	<path class="st2" d="M819.3,767.16c-1.59,0-3.19-0.57-4.47-1.72c-2.73-2.47-2.94-6.68-0.47-9.42
		c45.52-50.34,77.97-111.61,93.86-177.21c0.87-3.58,4.46-5.78,8.05-4.91c3.58,0.87,5.78,4.47,4.91,8.05
		c-16.41,67.75-49.92,131.03-96.93,183.01C822.93,766.42,821.12,767.16,819.3,767.16z"/>
	<path class="st2" d="M926.33,489.08c-3.68,0-6.67-2.98-6.67-6.67c0-12.28-0.55-24.67-1.64-36.82c-0.89-9.96-2.16-19.99-3.77-29.81
		c-0.6-3.63,1.86-7.06,5.5-7.66c3.63-0.6,7.06,1.86,7.66,5.5c1.67,10.14,2.98,20.5,3.9,30.78c1.12,12.55,1.69,25.34,1.69,38.01
		C933,486.1,930.02,489.08,926.33,489.08z"/>
</g>
</svg>
